<?xml version="1.0" encoding="UTF-8" standalone="no"?>
<!-- Created with Inkscape (http://www.inkscape.org/) -->

<svg
   xmlns:dc="http://purl.org/dc/elements/1.1/"
   xmlns:cc="http://creativecommons.org/ns#"
   xmlns:rdf="http://www.w3.org/1999/02/22-rdf-syntax-ns#"
   xmlns:svg="http://www.w3.org/2000/svg"
   xmlns="http://www.w3.org/2000/svg"
   xmlns:xlink="http://www.w3.org/1999/xlink"
   xmlns:sodipodi="http://sodipodi.sourceforge.net/DTD/sodipodi-0.dtd"
   xmlns:inkscape="http://www.inkscape.org/namespaces/inkscape"
   width="220.71429"
   height="210.35716"
   id="svg2"
   version="1.1"
   inkscape:version="0.47 r22583"
   sodipodi:docname="t-shirt.svg">
  <defs
     id="defs4">
    <linearGradient
       inkscape:collect="always"
       id="linearGradient3759">
      <stop
         style="stop-color:#eeeeee;stop-opacity:1;"
         offset="0"
         id="stop3761" />
      <stop
         id="stop3767"
         offset="0.25311852"
         style="stop-color:#ededed;stop-opacity:1" />
      <stop
         style="stop-color:#cccccf;stop-opacity:1"
         offset="1"
         id="stop3763" />
    </linearGradient>
    <linearGradient
       id="linearGradient3678">
      <stop
         style="stop-color:#3fa1e3;stop-opacity:1;"
         offset="0"
         id="stop3680" />
      <stop
         id="stop3686"
         offset="0.5"
         style="stop-color:#6ea7cd;stop-opacity:1" />
      <stop
         style="stop-color:#3e84b3;stop-opacity:1"
         offset="1"
         id="stop3682" />
    </linearGradient>
    <inkscape:perspective
       sodipodi:type="inkscape:persp3d"
       inkscape:vp_x="0 : 526.18109 : 1"
       inkscape:vp_y="0 : 1000 : 0"
       inkscape:vp_z="744.09448 : 526.18109 : 1"
       inkscape:persp3d-origin="372.04724 : 350.78739 : 1"
       id="perspective10" />
    <inkscape:perspective
       id="perspective2884"
       inkscape:persp3d-origin="0.5 : 0.33333333 : 1"
       inkscape:vp_z="1 : 0.5 : 1"
       inkscape:vp_y="0 : 1000 : 0"
       inkscape:vp_x="0 : 0.5 : 1"
       sodipodi:type="inkscape:persp3d" />
    <linearGradient
       inkscape:collect="always"
       xlink:href="#linearGradient3678"
       id="linearGradient3726"
       gradientUnits="userSpaceOnUse"
       gradientTransform="matrix(1,0,0,1.0180832,0,-11.577202)"
       x1="253.21428"
       y1="651.29077"
       x2="251.07143"
       y2="838.21936" />
    <radialGradient
       inkscape:collect="always"
       xlink:href="#linearGradient3759"
       id="radialGradient3765"
       cx="293.7225"
       cy="721.17511"
       fx="293.7225"
       fy="721.17511"
       r="110.35715"
       gradientTransform="matrix(-1.430623e-7,1.8773976,-1.3142995,-2.7299171e-5,1235.6973,186.12656)"
       gradientUnits="userSpaceOnUse" />
  </defs>
  <sodipodi:namedview
     id="base"
     pagecolor="#ffffff"
     bordercolor="#666666"
     borderopacity="1.0"
     inkscape:pageopacity="0.0"
     inkscape:pageshadow="2"
     inkscape:zoom="1.8539897"
     inkscape:cx="110.35714"
     inkscape:cy="105.17858"
     inkscape:document-units="px"
     inkscape:current-layer="layer1"
     showgrid="false"
     inkscape:window-width="1439"
     inkscape:window-height="1032"
     inkscape:window-x="460"
     inkscape:window-y="100"
     inkscape:window-maximized="0" />
  <metadata
     id="metadata7">
    <rdf:RDF>
      <cc:Work
         rdf:about="">
        <dc:format>image/svg+xml</dc:format>
        <dc:type
           rdf:resource="http://purl.org/dc/dcmitype/StillImage" />
        <dc:title></dc:title>
      </cc:Work>
    </rdf:RDF>
  </metadata>
  <g
     inkscape:label="Layer 1"
     inkscape:groupmode="layer"
     id="layer1"
     transform="translate(-177.5,-632.3622)">
    <path
       style="fill:url(#radialGradient3765);fill-opacity:1;stroke:none"
       d="m 177.5,701.59367 32.62129,36.51769 4.51146,0 8.32884,-8.74903 0,109.5531 1.38814,3.80393 125.97372,-0.38041 3.81738,-2.66275 -1.0411,-109.17269 9.36994,9.12942 3.81739,-0.76078 31.92723,-35.75691 0,-5.3255 -41.99125,-45.64712 -43.72641,-19.78042 c 0,0 -15.96361,18.63924 -47.5438,0.76079 l -41.6442,15.97648 -45.80863,52.4942 z"
       id="path2890" />
    <path
       style="font-size:medium;font-style:normal;font-variant:normal;font-weight:normal;font-stretch:normal;text-indent:0;text-align:start;text-decoration:none;line-height:normal;letter-spacing:normal;word-spacing:normal;text-transform:none;direction:ltr;block-progression:tb;writing-mode:lr-tb;text-anchor:start;color:#000000;fill:#666666;fill-opacity:1;stroke:none;stroke-width:2;marker:none;visibility:visible;display:inline;overflow:visible;enable-background:accumulate;font-family:Andale Mono;-inkscape-font-specification:Andale Mono"
       d="m 224.17187,652.23904 a 0.97179528,1.0462858 0 0 0 -0.7895,1.14426 c 0,0 1.12452,15.1068 1.73084,30.96043 0.30316,7.92682 0.46525,16.02096 0.30365,22.49289 -0.0808,3.23598 -0.24863,6.07298 -0.51621,8.23868 -0.26759,2.1657 -0.71254,3.7146 -0.9717,4.08665 a 0.97477723,1.0494963 0 1 0 1.54864,1.27503 c 0.78194,-1.1225 1.08366,-2.7787 1.36645,-5.06744 0.2828,-2.28874 0.43434,-5.18822 0.51622,-8.46753 0.16375,-6.55861 4.9e-4,-14.70364 -0.30366,-22.65636 -0.6083,-15.90544 -1.73083,-31.05851 -1.73083,-31.05851 a 0.97179528,1.0462858 0 0 0 -1.1539,-0.9481 z"
       id="path2892" />
    <path
       style="font-size:medium;font-style:normal;font-variant:normal;font-weight:normal;font-stretch:normal;text-indent:0;text-align:start;text-decoration:none;line-height:normal;letter-spacing:normal;word-spacing:normal;text-transform:none;direction:ltr;block-progression:tb;writing-mode:lr-tb;text-anchor:start;color:#000000;fill:#666666;fill-opacity:1;stroke:none;stroke-width:2;marker:none;visibility:visible;display:inline;overflow:visible;enable-background:accumulate;font-family:Andale Mono;-inkscape-font-specification:Andale Mono"
       d="m 256.48084,637.65789 a 0.97179528,1.0462858 0 0 0 -0.81987,1.17696 c 0,0 0.96633,8.12041 5.52653,15.88887 4.5602,7.76846 12.916,15.2526 27.11645,13.79652 14.73071,-1.51047 22.50625,-6.20546 26.90389,-11.86762 4.39764,-5.66216 5.3757,-12.11771 6.89298,-16.83698 a 0.97949545,1.0545762 0 0 0 -1.8523,-0.68656 c -1.60602,4.99527 -2.54101,11.00984 -6.55896,16.18312 -4.01795,5.17328 -11.14757,9.63706 -25.5678,11.11568 -13.51493,1.38579 -20.99346,-5.48872 -25.29452,-12.81572 -4.30106,-7.32701 -5.25324,-15.03886 -5.25324,-15.03886 a 0.97179528,1.0462858 0 0 0 -1.09316,-0.91541 z"
       id="path2894" />
    <path
       style="font-size:medium;font-style:normal;font-variant:normal;font-weight:normal;font-stretch:normal;text-indent:0;text-align:start;text-decoration:none;line-height:normal;letter-spacing:normal;word-spacing:normal;text-transform:none;direction:ltr;block-progression:tb;writing-mode:lr-tb;text-anchor:start;color:#000000;fill:#666666;fill-opacity:1;stroke:none;stroke-width:2;marker:none;visibility:visible;display:inline;overflow:visible;enable-background:accumulate;font-family:Andale Mono;-inkscape-font-specification:Andale Mono"
       d="m 264.25442,636.87326 -1.51828,1.27503 c 0.0366,0.0646 0.0848,0.0993 0.12146,0.16347 5.77908,10.10976 12.00625,15.4163 18.15861,17.49084 6.19142,2.0877 12.19035,0.88212 17.36911,-1.56927 10.35751,-4.9028 17.64239,-14.87539 17.64239,-14.87539 l -1.18426,-1.56927 c -16.82012,9.2395 -29.47469,8.92309 -37.92659,6.37516 -8.4519,-2.54793 -12.66244,-7.29057 -12.66244,-7.29057 z m 46.8237,5.10013 c -2.91289,3.22633 -7.20568,7.40703 -13.45194,10.36373 -4.88526,2.31247 -10.38187,3.37673 -16.03302,1.47119 -4.56265,-1.53849 -9.28445,-5.21749 -13.90743,-11.73684 2.20328,1.42987 4.99635,2.96563 8.71492,4.08664 8.07268,2.43362 19.75746,2.80443 34.67747,-4.18472 z"
       id="path2896" />
    <path
       style="font-size:medium;font-style:normal;font-variant:normal;font-weight:normal;font-stretch:normal;text-indent:0;text-align:start;text-decoration:none;line-height:normal;letter-spacing:normal;word-spacing:normal;text-transform:none;direction:ltr;block-progression:tb;writing-mode:lr-tb;text-anchor:start;color:#000000;fill:#666666;fill-opacity:1;stroke:none;stroke-width:2;marker:none;visibility:visible;display:inline;overflow:visible;enable-background:accumulate;font-family:Andale Mono;-inkscape-font-specification:Andale Mono"
       d="m 225.99381,833.07427 a 0.97276503,1.0473299 0 1 0 0.091,2.09236 l 125.62234,0.39232 a 0.97179528,1.0462858 0 1 0 0,-2.09236 l -125.6223,-0.39232 a 0.97179528,1.0462858 0 0 0 -0.091,0 z"
       id="path2898" />
    <path
       style="font-size:medium;font-style:normal;font-variant:normal;font-weight:normal;font-stretch:normal;text-indent:0;text-align:start;text-decoration:none;line-height:normal;letter-spacing:normal;word-spacing:normal;text-transform:none;direction:ltr;block-progression:tb;writing-mode:lr-tb;text-anchor:start;color:#000000;fill:#666666;fill-opacity:1;stroke:none;stroke-width:2;marker:none;visibility:visible;display:inline;overflow:visible;enable-background:accumulate;font-family:Andale Mono;-inkscape-font-specification:Andale Mono"
       d="m 394.64416,697.06137 a 0.97179528,1.0462858 0 0 0 -0.57694,0.32693 l -32.64299,34.75283 a 0.97702127,1.0519124 0 1 0 1.39682,1.47119 l 32.61262,-34.75283 a 0.97179528,1.0462858 0 0 0 -0.78951,-1.79812 z"
       id="path2900" />
    <path
       style="font-size:medium;font-style:normal;font-variant:normal;font-weight:normal;font-stretch:normal;text-indent:0;text-align:start;text-decoration:none;line-height:normal;letter-spacing:normal;word-spacing:normal;text-transform:none;direction:ltr;block-progression:tb;writing-mode:lr-tb;text-anchor:start;color:#000000;fill:#666666;fill-opacity:1;stroke:none;stroke-width:2;marker:none;visibility:visible;display:inline;overflow:visible;enable-background:accumulate;font-family:Andale Mono;-inkscape-font-specification:Andale Mono"
       d="m 183.29982,697.06137 a 0.97179528,1.0462858 0 0 0 -0.57694,1.79812 l 30.88178,33.24895 a 0.97179528,1.0462858 0 1 0 1.36645,-1.47119 L 184.08933,697.3883 a 0.97179528,1.0462858 0 0 0 -0.78951,-0.32693 z"
       id="path2902" />
    <path
       style="font-size:medium;font-style:normal;font-variant:normal;font-weight:normal;font-stretch:normal;text-indent:0;text-align:start;text-decoration:none;line-height:normal;letter-spacing:normal;word-spacing:normal;text-transform:none;direction:ltr;block-progression:tb;writing-mode:lr-tb;text-anchor:start;color:#000000;fill:#666666;fill-opacity:1;stroke:none;stroke-width:2;marker:none;visibility:visible;display:inline;overflow:visible;enable-background:accumulate;font-family:Andale Mono;-inkscape-font-specification:Andale Mono"
       d="m 351.58579,654.10255 a 0.97179528,1.0462858 0 0 0 -0.81987,0.85003 c 0,0 -2.18628,12.95591 -3.18839,27.91996 -0.50104,7.48201 -0.7226,15.48216 -0.21256,22.65636 0.51005,7.1742 1.71795,13.52618 4.22082,17.81777 a 0.97179528,1.0462858 0 1 0 1.63974,-1.11157 c -2.1821,-3.74159 -3.41863,-9.85737 -3.91716,-16.86967 -0.49853,-7.0123 -0.28411,-14.9454 0.21256,-22.36212 0.99335,-14.83344 3.15802,-27.65842 3.15802,-27.65842 a 0.97179528,1.0462858 0 0 0 -1.09316,-1.24234 z"
       id="path2904" />
  </g>
</svg>
